<?xml version="1.0" encoding="UTF-8"?>
<svg width="103px" height="103px" viewBox="0 0 103 103" version="1.1" xmlns="http://www.w3.org/2000/svg" xmlns:xlink="http://www.w3.org/1999/xlink">
    <!-- Generator: Sketch 50 (54983) - http://www.bohemiancoding.com/sketch -->
    <title>Group 8</title>
    <desc>Created with Sketch.</desc>
    <defs>
        <circle id="path-1" cx="51.5" cy="51.5" r="51.5"></circle>
    </defs>
    <g id="Freelance" stroke="none" stroke-width="1" fill="none" fill-rule="evenodd">
        <g id="Freelance_Profil-vierge" transform="translate(-325.000000, -135.000000)">
            <g id="Couverture" transform="translate(228.000000, 0.000000)">
                <g id="Photo" transform="translate(97.000000, 135.000000)">
                    <g id="Group-8">
                        <g id="Shape">
                            <mask id="mask-2" fill="white">
                                <use xlink:href="#path-1"></use>
                            </mask>
                            <use id="Mask" fill="#EBEBEB" xlink:href="#path-1"></use>
                            <path d="M15,102.928255 C15,102.744057 16.1032746,100.533682 17.5743073,92.1526787 C18.1259446,88.9292158 24.6536524,85.9820498 33.1120907,82.3901912 C36.0541562,81.100806 38.6284635,80.0877177 39.8236776,79.2588273 C43.1335013,77.1405517 43.0415617,74.0091878 43.0415617,71.7067143 C43.0415617,71.4304175 43.0415617,71.2462196 43.0415617,70.9699228 C43.0415617,70.3252302 42.7657431,69.9568344 42.2141058,69.3121419 C41.3866499,68.2990536 40.2833753,67.0096684 39.6397985,63.8783045 C39.4559194,63.3257109 39.2720403,62.7731172 39.1801008,62.1284247 C39.1801008,62.1284247 39.0881612,61.4837321 38.9042821,60.6548416 C38.720403,60.0101491 38.6284635,59.3654565 38.5365239,58.8128629 C37.1574307,60.4706438 34.8589421,54.3000149 35.5944584,51.4449478 C35.9622166,50.0634637 36.697733,49.7871669 37.4332494,49.8792658 C37.3413098,49.2345732 32.5604534,38.2747995 38.9042821,34.2224462 C38.1687657,32.1041706 38.4445844,30.077994 38.4445844,29.985895 C38.5365239,29.7095982 38.6284635,29.5254003 38.9042821,29.4333014 C39.1801008,29.3412024 39.3639798,29.3412024 39.6397985,29.4333014 C42.9496222,31.7357749 46.5352645,30.8147855 50.2128463,29.985895 C52.9710327,29.3412024 55.7292191,28.6044109 58.5793451,29.2491035 C61.7052897,29.8937961 63.268262,32.6567642 64.0037783,34.3145451 C70.4395466,38.2747995 65.6586902,49.3266722 65.5667506,49.9713647 C66.302267,49.8792658 67.0377834,50.0634637 67.4055416,51.5370467 C68.1410579,54.3921138 65.7506297,60.5627427 64.4634761,58.9049618 C64.1876574,60.6548416 63.3602015,64.0625024 63.0843829,64.8913928 C62.440806,67.4701631 61.5214106,68.6674493 60.7858942,69.4963398 C60.2342569,70.1410323 59.9584383,70.5094281 59.9584383,71.1541207 C59.9584383,71.3383185 59.9584383,71.6146153 59.9584383,71.8909122 C59.9584383,74.1933856 59.8664987,77.2326506 63.1763224,79.4430251 C64.3715365,80.1798167 66.9458438,81.2850039 69.8879093,82.5743891 C78.3463476,86.1662477 84.8740554,89.2055127 85.4256927,92.3368766 C86.8967254,100.71788 88,102.928255 88,103.112452 L88,103.204551 L88,103.29665 C83.7707809,114.901117 19.5969773,114.901117 15.3677582,103.29665 L15.3677582,103.204551 L15,102.928255 Z" fill="#C6C6C9" fill-rule="nonzero" mask="url(#mask-2)"></path>
                        </g>
                    </g>
                </g>
            </g>
        </g>
    </g>
</svg>