<?xml version="1.0" encoding="UTF-8"?>
<svg width="20px" height="20px" viewBox="0 0 20 20" version="1.1" xmlns="http://www.w3.org/2000/svg" xmlns:xlink="http://www.w3.org/1999/xlink">
    <!-- Generator: Sketch 50 (54983) - http://www.bohemiancoding.com/sketch -->
    <title>Group 4 Copy 4</title>
    <desc>Created with Sketch.</desc>
    <defs></defs>
    <g id="Freelance" stroke="none" stroke-width="1" fill="none" fill-rule="evenodd">
        <g id="Freelance_Missions_En-cours-valider-modif-a" transform="translate(-701.000000, -411.000000)" fill="#6C6C6E">
            <g id="Calendrier" transform="translate(648.000000, 404.000000)">
                <g id="Mois" transform="translate(53.000000, 2.000000)">
                    <g id="Group-4-Copy-4" transform="translate(0.000000, 5.000000)">
                        <path d="M1,7 L19,7 C19.5522847,7 20,7.44771525 20,8 L20,19 C20,19.5522847 19.5522847,20 19,20 L1,20 C0.44771525,20 6.76353751e-17,19.5522847 0,19 L0,8 C-6.76353751e-17,7.44771525 0.44771525,7 1,7 Z M2,9 L2,13 L6,13 L6,9 L2,9 Z M2,14 L2,18 L6,18 L6,14 L2,14 Z M7,9 L7,13 L11,13 L11,9 L7,9 Z M7,14 L7,18 L11,18 L11,14 L7,14 Z M12,9 L12,13 L16,13 L16,9 L12,9 Z" id="Combined-Shape"></path>
                        <path d="M16,2 L20,2 L20,5 L0,5 L0,2 L4,2 L4,0 L6,0 L6,2 L14,2 L14,0 L16,0 L16,2 Z" id="Combined-Shape"></path>
                    </g>
                </g>
            </g>
        </g>
    </g>
</svg>