<?xml version="1.0" encoding="UTF-8"?>
<svg width="18px" height="18px" viewBox="0 0 18 18" version="1.1" xmlns="http://www.w3.org/2000/svg" xmlns:xlink="http://www.w3.org/1999/xlink">
    <!-- Generator: Sketch 50 (54983) - http://www.bohemiancoding.com/sketch -->
    <title>Combined Shape Copy</title>
    <desc>Created with Sketch.</desc>
    <defs></defs>
    <g id="Plateforme" stroke="none" stroke-width="1" fill="none" fill-rule="evenodd">
        <g id="Neadz_Profil-infos" transform="translate(-1042.000000, -106.000000)" fill="#1C1E52">
            <g id="Group-12" transform="translate(400.000000, 70.000000)">
                <path d="M651,44.2892375 L659.142034,36.1472037 C659.338305,35.9509321 659.656525,35.9509321 659.852796,36.1472037 C660.049068,36.3434754 660.049068,36.6616945 659.852796,36.8579662 L651.710762,45 L659.852796,53.1420338 C660.049068,53.3383055 660.049068,53.6565246 659.852796,53.8527963 C659.656525,54.0490679 659.338305,54.0490679 659.142034,53.8527963 L651,45.7107625 L642.857966,53.8527963 C642.661695,54.0490679 642.343475,54.0490679 642.147204,53.8527963 C641.950932,53.6565246 641.950932,53.3383055 642.147204,53.1420338 L650.289238,45 L642.147204,36.8579662 C641.950932,36.6616945 641.950932,36.3434754 642.147204,36.1472037 C642.343475,35.9509321 642.661695,35.9509321 642.857966,36.1472037 L651,44.2892375 Z" id="Combined-Shape-Copy"></path>
            </g>
        </g>
    </g>
</svg>