<?xml version="1.0" encoding="UTF-8"?>
<svg width="11px" height="11px" viewBox="0 0 11 11" version="1.1" xmlns="http://www.w3.org/2000/svg" xmlns:xlink="http://www.w3.org/1999/xlink">
    <!-- Generator: Sketch 50 (54983) - http://www.bohemiancoding.com/sketch -->
    <title>Combined Shape</title>
    <desc>Created with Sketch.</desc>
    <defs></defs>
    <g id="Plateforme" stroke="none" stroke-width="1" fill="none" fill-rule="evenodd">
        <g id="Neadz_Profil-new-experience" transform="translate(-503.000000, -869.000000)" fill="#FFFFFF">
            <g id="Group-11" transform="translate(400.000000, 70.000000)">
                <path d="M108.5,803.331554 L112.589561,799.241993 C112.912218,798.919336 113.435349,798.919336 113.758007,799.241993 C114.080664,799.564651 114.080664,800.087782 113.758007,800.410439 L109.668446,804.5 L113.758007,808.589561 C114.080664,808.912218 114.080664,809.435349 113.758007,809.758007 C113.435349,810.080664 112.912218,810.080664 112.589561,809.758007 L108.5,805.668446 L104.410439,809.758007 C104.087782,810.080664 103.564651,810.080664 103.241993,809.758007 C102.919336,809.435349 102.919336,808.912218 103.241993,808.589561 L107.331554,804.5 L103.241993,800.410439 C102.919336,800.087782 102.919336,799.564651 103.241993,799.241993 C103.564651,798.919336 104.087782,798.919336 104.410439,799.241993 L108.5,803.331554 Z" id="Combined-Shape"></path>
            </g>
        </g>
    </g>
</svg>