<?xml version="1.0" encoding="UTF-8"?>
<svg width="44px" height="44px" viewBox="0 0 44 44" version="1.1" xmlns="http://www.w3.org/2000/svg" xmlns:xlink="http://www.w3.org/1999/xlink">
    <!-- Generator: Sketch 50 (54983) - http://www.bohemiancoding.com/sketch -->
    <title>Desktop/icon/supprimer</title>
    <desc>Created with Sketch.</desc>
    <defs></defs>
    <g id="Entreprise" stroke="none" stroke-width="1" fill="none" fill-rule="evenodd">
        <g id="Entreprise_listing-freelance-contrats" transform="translate(-1252.000000, -289.000000)">
            <g id="Desktop/icon/supprimer" transform="translate(1252.000000, 289.000000)">
                <rect id="Rectangle-7" fill="#42436D" opacity="0.500993304" x="0" y="0" width="44" height="44" rx="4"></rect>
                <g id="Group-13" stroke-width="1" transform="translate(13.000000, 12.000000)">
                    <path d="M3,4 L16,4 L16,19 C16,20.1045695 15.1045695,21 14,21 L5,21 C3.8954305,21 3,20.1045695 3,19 L3,4 Z M7,7 L7,18 L8,18 L8,7 L7,7 Z M9,7 L9,18 L10,18 L10,7 L9,7 Z M11,7 L11,18 L12,18 L12,7 L11,7 Z" id="Combined-Shape" fill="#FFFFFF"></path>
                    <rect id="Rectangle-11" stroke="#FFFFFF" x="6.5" y="0.5" width="6" height="3" rx="1"></rect>
                    <rect id="Rectangle-10" fill="#FFFFFF" x="0" y="3" width="19" height="1"></rect>
                </g>
            </g>
        </g>
    </g>
</svg>