<?xml version="1.0" encoding="UTF-8"?>
<svg width="44px" height="44px" viewBox="0 0 44 44" version="1.1" xmlns="http://www.w3.org/2000/svg" xmlns:xlink="http://www.w3.org/1999/xlink">
    <!-- Generator: Sketch 50 (54983) - http://www.bohemiancoding.com/sketch -->
    <title>Exporter</title>
    <desc>Created with Sketch.</desc>
    <defs></defs>
    <g id="Plateforme" stroke="none" stroke-width="1" fill="none" fill-rule="evenodd">
        <g id="Neadz_Profil" transform="translate(-1360.000000, -218.000000)">
            <g id="Exporter" transform="translate(1360.000000, 218.000000)">
                <rect id="Rectangle-7-Copy-3" fill="#EBEBEB" opacity="0.204620536" x="0" y="0" width="44" height="44" rx="4"></rect>
                <g id="Group-2" transform="translate(11.000000, 13.000000)" fill="#FFFFFF">
                    <rect id="Rectangle-19" x="0" y="17" width="22" height="2"></rect>
                    <rect id="Rectangle-20-Copy-2" x="20" y="13" width="2" height="6" rx="1"></rect>
                    <rect id="Rectangle-20-Copy-3" x="0" y="13" width="2" height="6" rx="1"></rect>
                    <g id="Group-11" transform="translate(10.500000, 7.500000) scale(1, -1) rotate(-180.000000) translate(-10.500000, -7.500000) translate(4.000000, 0.000000)">
                        <rect id="Rectangle-20" x="5" y="0" width="2" height="14" rx="1"></rect>
                        <rect id="Rectangle-20" transform="translate(8.593670, 11.266414) scale(-1, 1) rotate(-43.000000) translate(-8.593670, -11.266414) " x="7.59367029" y="7.26641399" width="2" height="8" rx="1"></rect>
                        <rect id="Rectangle-20" transform="translate(3.593670, 11.266414) rotate(-43.000000) translate(-3.593670, -11.266414) " x="2.59367029" y="7.26641399" width="2" height="8" rx="1"></rect>
                    </g>
                </g>
            </g>
        </g>
    </g>
</svg>