<?xml version="1.0" encoding="UTF-8"?>
<svg width="11px" height="11px" viewBox="0 0 11 11" version="1.1" xmlns="http://www.w3.org/2000/svg" xmlns:xlink="http://www.w3.org/1999/xlink">
    <!-- Generator: Sketch 50 (54983) - http://www.bohemiancoding.com/sketch -->
    <title>Combined Shape Copy</title>
    <desc>Created with Sketch.</desc>
    <defs></defs>
    <g id="Agent" stroke="none" stroke-width="1" fill="none" fill-rule="evenodd">
        <g id="Agent_Entreprises_fiche_details-besoin" transform="translate(-476.000000, -442.000000)" fill="#06060F">
            <g id="Group-5" transform="translate(400.000000, 104.000000)">
                <g id="Intitulé-du-poste" transform="translate(40.000000, 228.000000)">
                    <g id="Group" transform="translate(20.000000, 92.000000)">
                        <g id="CTA-Copy-2">
                            <path d="M21.0646668,22.35756 L25.2757801,18.1464466 C25.4710423,17.9511845 25.7876248,17.9511845 25.9828869,18.1464466 C26.1781491,18.3417088 26.1781491,18.6582912 25.9828869,18.8535534 L21.7717735,23.0646668 L25.9828869,27.2757801 C26.1781491,27.4710423 26.1781491,27.7876248 25.9828869,27.9828869 C25.7876248,28.1781491 25.4710423,28.1781491 25.2757801,27.9828869 L21.0646668,23.7717735 L16.8535534,27.9828869 C16.6582912,28.1781491 16.3417088,28.1781491 16.1464466,27.9828869 C15.9511845,27.7876248 15.9511845,27.4710423 16.1464466,27.2757801 L20.35756,23.0646668 L16.1464466,18.8535534 C15.9511845,18.6582912 15.9511845,18.3417088 16.1464466,18.1464466 C16.3417088,17.9511845 16.6582912,17.9511845 16.8535534,18.1464466 L21.0646668,22.35756 Z" id="Combined-Shape-Copy"></path>
                        </g>
                    </g>
                </g>
            </g>
        </g>
    </g>
</svg>