<?xml version="1.0" encoding="UTF-8"?>
<svg width="16px" height="16px" viewBox="0 0 16 16" version="1.1" xmlns="http://www.w3.org/2000/svg" xmlns:xlink="http://www.w3.org/1999/xlink">
    <!-- Generator: Sketch 50 (54983) - http://www.bohemiancoding.com/sketch -->
    <title>Shape</title>
    <desc>Created with Sketch.</desc>
    <defs></defs>
    <g id="Symbols" stroke="none" stroke-width="1" fill="none" fill-rule="evenodd">
        <g id="Desktop/Agent/Entreprises/Contact-vignette" transform="translate(-33.000000, -266.000000)" fill="#302F3A" fill-rule="nonzero">
            <g id="Card-contact">
                <g id="Phone" transform="translate(33.000000, 263.000000)">
                    <path d="M9.76431886,14.0585953 C10.0237416,13.8003011 10.0237416,13.8003011 10.3352589,13.4903222 C10.6242698,13.2028049 10.851591,12.9769239 10.996543,12.8333132 C11.718686,12.1176943 12.6833364,12.1176113 13.4068712,12.8343597 C14.0793538,13.5006045 14.7605548,14.1813046 15.453655,14.8794217 C16.1856997,15.6169641 16.1810314,16.5820437 15.4460751,17.3236 C15.3006401,17.4703232 15.0623432,17.6449023 14.7384762,17.8533794 C14.666228,17.8998864 14.5902973,17.9476546 14.5110931,17.996505 C14.2978431,18.1280302 14.0702839,18.2617213 13.8428452,18.3909044 C13.7063841,18.4684131 13.5999097,18.5274058 13.5474441,18.555774 C12.7153272,19.03567 11.3636086,19.1395494 10.4966458,18.8046532 C10.4096081,18.7781486 10.2540095,18.7252968 10.0395776,18.6438476 C9.68655067,18.5097548 9.29431688,18.3425896 8.8726044,18.1400569 C7.66978798,17.5623894 6.46743849,16.8159017 5.34394064,15.8814321 C4.89276863,15.5061697 4.46267218,15.1067523 4.05671278,14.6824402 C3.72918599,14.3401065 3.41788388,13.9834395 3.12238933,13.6139156 C2.14947928,12.3972652 1.38553227,11.0952315 0.806222584,9.79277085 C0.603144435,9.33619072 0.437462521,8.9115653 0.306244114,8.52943452 C0.226582273,8.29744542 0.175636975,8.12921373 0.161532072,8.07026594 C-0.16478076,7.17186859 0.02019462,5.81953905 0.564192383,5.02373856 C0.598186239,4.9711349 0.657772558,4.88089683 0.736209429,4.76539896 C0.86690248,4.57295417 1.00274691,4.38038569 1.13732334,4.19972352 C1.19571332,4.12133787 1.25275499,4.04672016 1.30819319,3.97639343 C1.45039649,3.79599991 1.5794796,3.64689636 1.6953637,3.53290315 C2.41870452,2.82167025 3.38165525,2.82266272 4.10631406,3.53410046 C4.40169066,3.82390639 5.6776322,5.10045651 6.13920564,5.5659029 C6.8861812,6.31972229 6.88787981,7.27255 6.14185298,8.02210741 C6.02995091,8.13457807 5.78684639,8.37811189 5.45150477,8.71376395 C5.16669545,8.99880327 5.16669545,8.99880327 4.93003321,9.23558428 C4.807921,9.35774487 4.76456749,9.40111552 4.73647908,9.42921285 C4.78397155,9.54981874 4.86271513,9.73618512 4.97004651,9.96817338 C5.17780209,10.4172204 5.41587302,10.866042 5.67923332,11.2826848 C5.96621948,11.7367043 6.26563312,12.1235295 6.5713919,12.4215662 C6.85375817,12.6968014 7.1905774,12.9631989 7.57033866,13.2180941 C8.01352763,13.5155619 8.49076061,13.7817675 8.96817859,14.0119872 C9.21553817,14.1312686 9.41401961,14.2180579 9.54921179,14.2728155 C9.57995196,14.2421976 9.62609931,14.1962416 9.76431886,14.0585953 Z M4.71619045,9.37671095 C4.71679628,9.37831397 4.7174104,9.37993501 4.71803276,9.3815739 C4.71754065,9.38009936 4.71688322,9.37842477 4.71619045,9.37671095 Z" id="Shape"></path>
                </g>
            </g>
        </g>
    </g>
</svg>