<?xml version="1.0" encoding="UTF-8"?>
<svg width="44px" height="44px" viewBox="0 0 44 44" version="1.1" xmlns="http://www.w3.org/2000/svg" xmlns:xlink="http://www.w3.org/1999/xlink">
    <!-- Generator: Sketch 50 (54983) - http://www.bohemiancoding.com/sketch -->
    <title>Desktop/icon/supprimer Copy</title>
    <desc>Created with Sketch.</desc>
    <defs></defs>
    <g id="Freelance" stroke="none" stroke-width="1" fill="none" fill-rule="evenodd">
        <g id="Freelance_Factures" transform="translate(-384.000000, -289.000000)">
            <g id="Couverture" transform="translate(228.000000, 0.000000)">
                <g id="Desktop/icon/print" transform="translate(156.000000, 289.000000)">
                    <rect id="Rectangle-7" fill="#42436D" opacity="0.500993304" x="0" y="0" width="44" height="44" rx="4"></rect>
                    <g id="Group-12-Copy" stroke-width="1" transform="translate(13.000000, 13.000000)">
                        <path d="M17,16 L17,12 C17,11.4477153 16.5522847,11 16,11 L3,11 C2.44771525,11 2,11.4477153 2,12 L2,16 L1,16 C0.44771525,16 6.76353751e-17,15.5522847 0,15 L0,7 C-6.76353751e-17,6.44771525 0.44771525,6 1,6 L18,6 C18.5522847,6 19,6.44771525 19,7 L19,15 C19,15.5522847 18.5522847,16 18,16 L17,16 Z M16,9 C16.5522847,9 17,8.55228475 17,8 C17,7.44771525 16.5522847,7 16,7 C15.4477153,7 15,7.44771525 15,8 C15,8.55228475 15.4477153,9 16,9 Z" id="Combined-Shape" fill="#FFFFFF"></path>
                        <rect id="Rectangle-8" fill="#FFFFFF" x="3" y="12" width="13" height="6"></rect>
                        <path d="M3,0 L16,0 C16.5522847,-1.01453063e-16 17,0.44771525 17,1 L17,5 L2,5 L2,1 C2,0.44771525 2.44771525,1.01453063e-16 3,0 Z" id="Rectangle-8-Copy-5" fill="#FAFAFF"></path>
                    </g>
                </g>
            </g>
        </g>
    </g>
</svg>