<?xml version="1.0" encoding="UTF-8"?>
<svg width="103px" height="103px" viewBox="0 0 103 103" version="1.1" xmlns="http://www.w3.org/2000/svg" xmlns:xlink="http://www.w3.org/1999/xlink">
    <!-- Generator: Sketch 50 (54983) - http://www.bohemiancoding.com/sketch -->
    <title>Group 3</title>
    <desc>Created with Sketch.</desc>
    <defs></defs>
    <g id="Freelance" stroke="none" stroke-width="1" fill="none" fill-rule="evenodd">
        <g id="Freelance_Profil-vierge" transform="translate(-1301.000000, -133.000000)">
            <g id="Couverture" transform="translate(228.000000, 0.000000)">
                <g id="Pourcentage-de-complétion" transform="translate(1073.000000, 133.000000)">
                    <g id="Group-3">
                        <circle id="Oval-3" stroke="#59DDF4" stroke-width="3" opacity="0.200446429" cx="51.5" cy="51.5" r="50"></circle>
                        <path d="M44.882893,61.7876871 C38.8324377,63.7777585 32.2641837,68.3408993 27.0681791,74.6053137 C19.9131728,83.2315426 15.785046,94.328085 15.785046,107.098105 C15.785046,110.0018 16.1809014,111.585516 16.5581311,111.836751 C16.5344329,111.820968 16.5520568,111.820945 16.7686219,111.724257 C17.198828,111.532187 17.7781832,111.089185 18.4608395,110.404128 C21.2087917,107.646514 25.0872353,101.584934 29.6942591,93.078694 C33.3740338,86.2844928 37.3488746,78.2451284 41.0566402,70.262377 C42.4778302,67.2025812 43.7687386,64.3427284 44.7313161,62.1360572 C44.7831374,62.0172588 44.8336825,61.9010888 44.882893,61.7876871 Z" id="Oval-3" stroke="#59DDF4" stroke-width="3" transform="translate(30.843471, 86.441575) rotate(-90.000000) translate(-30.843471, -86.441575) "></path>
                        <circle id="Oval" fill="#1C1E52" cx="50.5" cy="52.5" r="47.5"></circle>
                    </g>
                </g>
            </g>
        </g>
    </g>
</svg>