<?xml version="1.0" encoding="UTF-8"?>
<svg width="103px" height="103px" viewBox="0 0 103 103" version="1.1" xmlns="http://www.w3.org/2000/svg" xmlns:xlink="http://www.w3.org/1999/xlink">
    <!-- Generator: Sketch 50 (54983) - http://www.bohemiancoding.com/sketch -->
    <title>Group 3</title>
    <desc>Created with Sketch.</desc>
    <defs></defs>
    <g id="Freelance" stroke="none" stroke-width="1" fill="none" fill-rule="evenodd">
        <g id="Freelance_Profil-vierge" transform="translate(-1301.000000, -133.000000)">
            <g id="Couverture" transform="translate(228.000000, 0.000000)">
                <g id="Pourcentage-de-complétion" transform="translate(1073.000000, 133.000000)">
                    <g id="Group-3">
                        <circle id="Oval-3" stroke="#59DDF4" stroke-width="3" opacity="0.200446429" cx="51.5" cy="51.5" r="50"></circle>
                        <path d="M66.5233902,43.5414395 C45.4657362,32.3388223 26.544422,33.5039079 11.8169021,44.5924543 C-0.984595888,54.2308732 -9.18867898,70.8440115 -9.18867898,85.4444591 C-9.18867898,90.7011659 -5.97189599,91.8222583 1.32628433,89.2632902 C8.04989068,86.9057855 17.3454569,81.4739511 28.4580854,73.6719664 C37.2351254,67.5097581 46.6981867,60.1840861 55.7941323,52.678848 C59.1671723,49.8956884 62.2840736,47.2541935 64.7471649,45.1068731 C65.4227515,44.5178974 66.023727,43.9880259 66.5233902,43.5414395 Z" id="Oval-3" stroke="#59DDF4" stroke-width="3" transform="translate(29.183431, 63.127890) rotate(-90.000000) translate(-29.183431, -63.127890) "></path>
                        <circle id="Oval" fill="#1C1E52" cx="50.5" cy="52.5" r="47.5"></circle>
                    </g>
                </g>
            </g>
        </g>
    </g>
</svg>