<?xml version="1.0" encoding="UTF-8"?>
<svg width="103px" height="103px" viewBox="0 0 103 103" version="1.1" xmlns="http://www.w3.org/2000/svg" xmlns:xlink="http://www.w3.org/1999/xlink">
    <!-- Generator: Sketch 50 (54983) - http://www.bohemiancoding.com/sketch -->
    <title>Group 3</title>
    <desc>Created with Sketch.</desc>
    <defs></defs>
    <g id="Freelance" stroke="none" stroke-width="1" fill="none" fill-rule="evenodd">
        <g id="Freelance_Profil-vierge" transform="translate(-1301.000000, -133.000000)">
            <g id="Couverture" transform="translate(228.000000, 0.000000)">
                <g id="Pourcentage-de-complétion" transform="translate(1073.000000, 133.000000)">
                    <g id="Group-3">
                        <circle id="Oval-3" stroke="#59DDF4" stroke-width="3" opacity="0.200446429" cx="51.5" cy="51.5" r="50"></circle>
                        <path d="M51.5,103 C54.9457058,103 50.0211681,97.616995 53.0691649,97.0384784 C75.1809333,92.8416152 94.9285659,79.0885665 94.9285659,54.0916077 C94.9285659,53.4816476 97.4456999,49.7180163 97.4246661,49.1131838 C97.1794006,42.0605077 86.3029857,32.5355445 84.5127939,26.0567612 C83.6009869,22.7568913 92.6596838,21.8476679 91.0169471,19.1651485 C86.1489517,11.2159178 68.5976088,0 51.5,0 C23.0573354,0 0,23.0573354 0,51.5 C0,79.9426646 23.0573354,103 51.5,103 Z" id="Oval-Copy" fill="#59DDF4"></path>
                        <circle id="Oval" fill="#1C1E52" cx="51.5" cy="51.5" r="48.5"></circle>
                    </g>
                </g>
            </g>
        </g>
    </g>
</svg>