<?xml version="1.0" encoding="UTF-8"?>
<svg width="82px" height="82px" viewBox="0 0 82 82" version="1.1" xmlns="http://www.w3.org/2000/svg" xmlns:xlink="http://www.w3.org/1999/xlink">
    <!-- Generator: Sketch 50 (54983) - http://www.bohemiancoding.com/sketch -->
    <title>Group 2</title>
    <desc>Created with Sketch.</desc>
    <defs>
        <linearGradient x1="10.5438232%" y1="21.4019775%" x2="50%" y2="100%" id="linearGradient-1">
            <stop stop-color="#33FFDD" offset="0%"></stop>
            <stop stop-color="#1C1E52" offset="100%"></stop>
        </linearGradient>
    </defs>
    <g id="Symbols" stroke="none" stroke-width="1" fill="none" fill-rule="evenodd">
        <g id="Desktop/vignette-freelance-candidats" transform="translate(-25.000000, -32.000000)">
            <g id="Group-2" transform="translate(27.000000, 34.000000)">
                <path d="M39,78 C60.5391052,78 78,60.5391052 78,39 C78,17.4608948 60.5391052,0 39,0 C17.4608948,0 0,17.4608948 0,39 C0,60.5391052 17.4608948,78 39,78 Z" id="Combined-Shape" stroke="#EBEBEB" stroke-width="4" stroke-linecap="round" stroke-dasharray="311,650" transform="translate(39.000000, 39.000000) rotate(-180.000000) translate(-39.000000, -39.000000) "></path>
                <path d="M4.25367893,25.1275045 C25.7927842,25.1275045 36.1211085,10.5199982 39.7129603,1.56108556 C43.304812,-7.39782708 -3.70513772,25.1275045 4.25367893,25.1275045 Z" id="Combined-Shape" stroke="url(#linearGradient-1)" stroke-width="4" stroke-linecap="round" stroke-dasharray="181,650" transform="translate(21.626839, 12.563752) rotate(-180.000000) translate(-21.626839, -12.563752) "></path>
                <circle id="Oval-2" fill="#FFFFFF" cx="39" cy="39" r="37"></circle>
            </g>
        </g>
    </g>
</svg>