<?xml version="1.0" encoding="UTF-8"?>
<svg width="84px" height="70px" viewBox="0 0 84 70" version="1.1" xmlns="http://www.w3.org/2000/svg" xmlns:xlink="http://www.w3.org/1999/xlink">
    <!-- Generator: Sketch 50 (54983) - http://www.bohemiancoding.com/sketch -->
    <title>Logo_Neadz_final</title>
    <desc>Created with Sketch.</desc>
    <defs></defs>
    <g id="Plateforme" stroke="none" stroke-width="1" fill="none" fill-rule="evenodd">
        <g id="Neadz_Profil" transform="translate(-63.000000, -50.000000)" fill-rule="nonzero">
            <g id="Menu-latéral">
                <g id="Logo_Neadz_final" transform="translate(63.000000, 50.000000)">
                    <path d="M70.0011724,8.99333828 C56.5896207,-0.781320475 30.1371724,-4.19979228 12.8807586,7.12400593 C-7.31793103,20.3784125 -0.661241379,44.1928487 11.7458276,56.0384273 C22.8671379,66.6564095 42.8375172,70.6088131 58.9514483,66.8131306 C62.9425862,68.6042582 69.2509655,71.2402671 67.8315517,69.32773 C66.9584483,68.1510237 66.5585172,66.209095 66.3866897,64.3698813 C70.1962759,62.7139763 73.6011724,60.515 76.3718276,57.7520772 C88.7041034,45.4546142 85.604069,20.3651187 70.0011724,8.99333828 Z" id="Shape" fill="#1C1E52"></path>
                    <path d="M70.6141034,50.4926409 C70.4868621,50.3648961 70.2992069,50.3179525 70.0656207,50.3179525 L60.9760345,50.3179525 L69.7164828,39.0049555 C69.8106207,38.8700445 70.1441379,38.5127745 70.1441379,38.0972404 C70.1441379,37.6320623 70.1613103,37.6515875 70.1441379,36.6649407 C70.139069,36.3723739 69.6911379,36.0894659 69.0872069,36.0894659 L67.9131724,36.0894659 L59.867069,36.0894659 C59.9927586,35.3036795 60.0531724,34.465549 60.0531724,33.5828635 L60.0531724,18.943724 C60.0531724,18.7318546 59.9927586,18.5638131 59.8546552,18.4251632 C59.7164483,18.2872404 59.5505172,18.2260682 59.3386552,18.2260682 L57.9085862,18.2260682 C57.6967241,18.2260682 57.5116552,18.2872404 57.3735517,18.4251632 C57.2354483,18.5638131 57.1566207,18.7318546 57.1566207,18.943724 L57.1566207,27.7277893 C55.9152414,26.1541395 54.2215862,25.3665875 52.0185517,25.3665875 C49.8139655,25.3665875 48.1564138,26.0957715 47.0335862,27.5524777 C45.9100345,29.0092878 45.3088966,30.8337537 45.2243793,33.0244214 L45.1938621,33.9827151 L45.2262414,34.9393472 C45.2383448,35.2531009 45.2621379,35.5582344 45.2948276,35.8565134 C44.4953793,35.6268843 43.5580345,35.5107715 42.4771034,35.5107715 C41.0997931,35.5107715 39.9415862,35.7536944 38.9861379,36.2290504 C37.9355172,36.7517656 36.8102069,37.9259792 36.2875862,38.4923145 C35.556,39.2341691 34.3450345,40.3080564 32.4433448,40.3080564 C31.1504483,40.3080564 30.1272414,39.818368 29.3436207,38.8399258 C28.559069,37.8614837 28.0875517,36.6808309 28.0875517,35.2980712 L28.0875517,35.0509941 L39.0876207,35.0509941 C39.2986552,35.0509941 39.4533103,34.9621958 39.5914138,34.8236499 C39.7287931,34.6848961 39.7772069,34.4893323 39.7772069,34.2767359 L39.7772069,33.7026113 C39.7772069,31.1496884 39.156931,29.1288279 37.875,27.6401335 C36.5924483,26.1506083 34.8093103,25.4058457 32.4783103,25.4058457 C30.7194828,25.4058457 29.2254828,25.857003 28.0875517,26.7584866 L28.0875517,25.3575519 C28.0875517,23.2089466 27.5143448,21.4802374 26.3914138,20.1722552 C25.2678621,18.864273 23.6834483,18.2098665 21.6488276,18.2098665 C17.0225172,18.2098665 15.2875862,20.2626113 14.7551379,20.9255341 C13.9093448,21.976365 13.5013448,23.6006973 13.5013448,24.7637982 L13.5013448,34.3879674 C13.5013448,34.6006677 13.5563793,34.7923887 13.6945862,34.9310386 C13.8318621,35.0689614 13.994069,35.1547478 14.2058276,35.1547478 L15.6677586,35.1547478 C15.8796207,35.1547478 16.0537241,35.0689614 16.1918276,34.9310386 C16.3292069,34.7923887 16.3977931,34.6006677 16.3977931,34.3879674 L16.3977931,25.5490653 C16.3977931,24.0385608 16.8002069,22.852819 17.6064828,21.9912166 C18.4111034,21.1296142 19.4922414,20.6988131 20.8478276,20.6988131 C22.2251379,20.6988131 23.2587931,21.1249407 24.0005172,21.974911 C24.7424483,22.8263353 25.0875517,24.0174777 25.0875517,25.5491691 L25.0875517,33.8254748 L25.1083448,33.9891543 L25.1531379,35.074362 C25.2803793,37.4145846 25.9968621,39.2601335 27.2896552,40.610178 C28.5815172,41.9618843 30.3121034,42.6364392 32.4731379,42.6364392 C35.0013103,42.6364392 37.0098621,41.6199852 38.5875517,39.7245846 C38.9701034,39.2906677 39.5107241,38.7920475 40.1043103,38.3985312 C40.697069,38.0051187 41.457931,37.807997 42.4326207,37.807997 C44.9535517,37.807997 46.1908966,38.9041098 46.1908966,41.0946736 L46.1908966,42.0201484 L41.447069,42.6900297 C39.4768966,42.9884125 37.9314828,43.5836202 36.786931,44.4771068 C35.6431034,45.3706973 35.0763103,46.5189466 35.0763103,47.9228932 C35.0763103,48.8164837 35.3385517,49.6304154 35.8584828,50.3643769 C36.3776897,51.0981306 37.0781379,51.6777596 37.9573448,52.1031602 C38.8364483,52.5285608 39.7963448,52.7411573 40.8345517,52.7411573 C42.2328621,52.7411573 43.374,52.5074777 44.2639655,52.0392878 C45.1540345,51.5719288 45.8805517,50.9867953 46.2943448,50.2841988 L46.2943448,51.6887685 C46.2943448,51.901365 46.3617931,52.0630712 46.488931,52.2016172 C46.6161724,52.3395401 46.7891379,52.3951039 47.0011034,52.3951039 L48.3993103,52.3951039 C48.6112759,52.3951039 48.7639655,52.3395401 48.902069,52.2016172 C49.0401724,52.0630712 49.0874483,51.901365 49.0874483,51.6887685 L49.0874483,42.0448665 C49.9265172,42.4126261 50.8981034,42.5969733 52.0203103,42.5969733 C55.8640345,42.5969733 58.1003793,41.0251929 59.1979655,38.4781899 L66.5776552,38.4781899 L57.6066207,49.9335757 C57.5003793,50.0824036 57.3975517,50.2475371 57.3019655,50.4283531 C57.2065862,50.6090653 57.1565172,50.7843769 57.1565172,50.9540801 L57.1565172,52.0074036 C57.1565172,52.2201039 57.2276897,52.3789021 57.3655862,52.5168249 C57.5029655,52.6554748 57.6803793,52.7066766 57.893069,52.7066766 L70.0655172,52.7066766 C70.2774828,52.7066766 70.4602759,52.6554748 70.5977586,52.5168249 C70.7350345,52.3789021 70.8116897,52.2201039 70.8116897,52.0074036 L70.8116897,51.0180564 C70.8117931,50.7843769 70.7413448,50.6204896 70.6141034,50.4926409 Z M28.0876552,32.7451484 C28.0876552,31.256454 28.4651379,30.0433976 29.2489655,29.1070178 C30.0325862,28.1714688 31.1063793,27.7031751 32.4837931,27.7031751 C33.8393793,27.7031751 34.8937241,28.1714688 35.6992759,29.1070178 C36.5037931,30.0433976 36.8808621,31.2563501 36.8808621,32.7451484 L36.8808621,32.8699852 L28.0877586,32.8699852 L28.0877586,32.7451484 L28.0876552,32.7451484 Z M46.1911034,45.051543 C46.1911034,46.795727 45.7702759,48.1256231 44.8802069,49.040089 C43.9901379,49.9547626 42.8573793,50.4119436 41.4591724,50.4119436 C40.4845862,50.4119436 39.6476897,50.1782641 38.9385517,49.7100742 C38.2285862,49.2426113 37.8768621,48.57273 37.8768621,47.7001187 C37.8768621,46.934273 38.2701724,46.295549 39.0538966,45.7851929 C39.8376207,45.2748368 40.970069,44.9134125 42.4957241,44.6999852 L46.1912069,44.1578487 L46.1912069,45.051543 L46.1911034,45.051543 Z M57.1776207,35.0988724 C57.114,36.4607567 56.7112759,37.6354896 55.9701724,38.6249407 C55.2283448,39.614184 54.1155517,40.1081306 52.6327241,40.1081306 C49.6235172,40.1081306 48.1197931,38.0662908 48.1197931,33.9826113 L48.1515517,33.0564095 C48.2143448,31.5037389 48.5962759,30.248724 49.2953793,29.2912611 C49.9945862,28.3337982 51.1072759,27.8555341 52.6328276,27.8555341 C54.0738621,27.8555341 55.1803448,28.3292285 55.953931,29.2756825 C56.7276207,30.2221365 57.1348966,31.3448368 57.1776207,32.6419139 C57.1985172,32.8764243 57.2093793,33.2909199 57.2093793,33.8860237 C57.2092759,34.4608754 57.1985172,34.8651929 57.1776207,35.0988724 Z" id="Shape" fill="#FFFFFF"></path>
                </g>
            </g>
        </g>
    </g>
</svg>