<?xml version="1.0" encoding="UTF-8"?>
<svg width="14px" height="16px" viewBox="0 0 14 16" version="1.1" xmlns="http://www.w3.org/2000/svg" xmlns:xlink="http://www.w3.org/1999/xlink">
    <!-- Generator: Sketch 50 (54983) - http://www.bohemiancoding.com/sketch -->
    <title>Shape</title>
    <desc>Created with Sketch.</desc>
    <defs></defs>
    <g id="Agent" stroke="none" stroke-width="1" fill="none" fill-rule="evenodd">
        <g id="Agent_listing-freelance-Tous" transform="translate(-34.000000, -234.000000)" fill="#6C6C6E" fill-rule="nonzero">
            <g id="Menu-latéral">
                <g id="Freelances" transform="translate(0.000000, 214.000000)">
                    <path d="M34.4652363,31.4131347 C34.5649297,30.8305812 35.744636,30.2979608 37.2732694,29.6488297 C37.804968,29.4158083 38.2702042,29.2327201 38.4862068,29.0829206 C39.0843677,28.7000997 39.0677521,28.1341906 39.0677521,27.7180809 C39.0677521,27.6681477 39.0677521,27.634859 39.0677521,27.5849258 C39.0677521,27.4684151 39.0179054,27.4018376 38.9182119,27.2853268 C38.7686717,27.1022386 38.5692847,26.8692172 38.4529756,26.303308 C38.4197445,26.2034417 38.3865133,26.1035754 38.3698977,25.9870647 C38.3698977,25.9870647 38.3532821,25.870554 38.320051,25.7207545 C38.2868198,25.6042438 38.2702042,25.4877331 38.2535887,25.3878668 C38.004355,25.6874657 37.5889654,24.5722918 37.7218901,24.0563159 C37.7883524,23.8066501 37.921277,23.7567169 38.0542017,23.7733613 C38.0375861,23.6568506 37.1735759,21.6761686 38.320051,20.9438156 C38.1871263,20.5609947 38.2369731,20.1948182 38.2369731,20.1781738 C38.2535887,20.1282406 38.2702042,20.0949519 38.320051,20.0783075 C38.3698977,20.0616631 38.4031289,20.0616631 38.4529756,20.0783075 C39.0511365,20.4944171 39.6991442,20.3279733 40.3637674,20.1781738 C40.8622348,20.0616631 41.3607023,19.928508 41.8757853,20.0450187 C42.440715,20.1615294 42.7231799,20.660861 42.8561045,20.96046 C44.0191952,21.6761686 43.155185,23.673495 43.1385694,23.7900057 C43.271494,23.7733613 43.4044187,23.8066501 43.470881,24.0729602 C43.6038057,24.5889362 43.1718006,25.7041101 42.9391824,25.4045112 C42.8893357,25.7207545 42.7397955,26.3365968 42.6899487,26.4863963 C42.5736396,26.9524391 42.4074838,27.1688161 42.2745592,27.3186156 C42.1748657,27.4351263 42.125019,27.5017039 42.125019,27.6182146 C42.125019,27.6515033 42.125019,27.7014365 42.125019,27.7513697 C42.125019,28.1674793 42.1084034,28.7167441 42.7065643,29.1162094 C42.9225668,29.2493645 43.3878031,29.4490971 43.9195017,29.6821185 C45.4481351,30.3312496 46.6278413,30.8805143 46.7275348,31.4464235 C46.9047677,32.4561829 47.0598464,33.6444723 47.1927711,35.0112915 L34,35.0112915 C34.1329246,33.6222798 34.2880034,32.4228942 34.4652363,31.4131347 Z" id="Shape"></path>
                </g>
            </g>
        </g>
    </g>
</svg>