<?xml version="1.0" standalone="no"?>
<!DOCTYPE svg PUBLIC "-//W3C//DTD SVG 20010904//EN"
 "http://www.w3.org/TR/2001/REC-SVG-20010904/DTD/svg10.dtd">
<svg version="1.0" xmlns="http://www.w3.org/2000/svg"
 width="624.000000pt" height="624.000000pt" viewBox="0 0 624.000000 624.000000"
 preserveAspectRatio="xMidYMid meet">
<metadata>
Created by potrace 1.11, written by Peter Selinger 2001-2013
</metadata>
<g transform="translate(0.000000,624.000000) scale(0.100000,-0.100000)"
fill="#000000" stroke="none">
<path d="M2680 5689 c-1007 -38 -1898 -453 -2341 -1092 -427 -617 -445 -1418
-48 -2209 398 -794 1085 -1308 2071 -1548 630 -153 1354 -165 1929 -31 32 7
56 0 210 -66 214 -91 395 -153 449 -153 22 0 40 3 40 7 0 4 -18 43 -39 88 -38
76 -67 185 -73 268 l-3 39 141 72 c658 338 1007 814 1121 1529 25 157 25 543
0 712 -59 395 -185 746 -382 1065 -192 309 -465 582 -777 776 -494 307 -1240
520 -1888 540 -91 2 -181 6 -200 7 -19 1 -114 0 -210 -4z m-967 -1334 c89 -19
158 -57 217 -122 86 -94 123 -199 135 -379 l7 -101 52 28 c145 79 385 79 530
1 122 -66 218 -205 250 -364 19 -93 21 -249 4 -266 -9 -9 -117 -12 -426 -12
l-415 0 5 -67 c9 -123 83 -240 183 -288 44 -22 68 -27 127 -27 125 1 167 23
321 168 106 100 180 145 274 164 60 13 294 9 326 -5 16 -7 17 3 17 124 0 163
18 259 70 368 87 184 219 266 430 266 137 0 232 -33 323 -113 l47 -42 0 305
c0 299 5 351 33 369 7 4 42 8 78 8 49 0 73 -5 88 -18 l22 -17 -3 -638 -3 -637
350 0 c416 0 395 5 395 -100 l0 -69 -74 -98 c-41 -54 -191 -249 -335 -433
l-260 -335 347 -3 c393 -2 372 2 372 -85 0 -95 45 -87 -499 -87 -407 0 -480 2
-491 15 -19 23 -23 87 -8 130 9 25 143 204 346 462 183 232 332 424 332 427 0
3 -119 6 -264 6 l-264 0 -32 -57 c-65 -115 -194 -205 -335 -233 -109 -22 -280
-14 -361 17 -12 4 -14 -45 -14 -349 0 -423 7 -398 -109 -398 -46 0 -82 5 -89
12 -7 7 -12 39 -12 71 l0 60 -49 -46 c-177 -166 -494 -167 -670 -2 -69 65 -95
122 -99 223 -4 77 -2 88 28 148 23 46 46 76 83 105 108 86 202 117 458 154
266 37 239 27 239 93 0 160 -74 232 -246 240 -141 7 -172 -7 -308 -137 -173
-164 -265 -205 -456 -205 -92 1 -128 5 -179 23 -132 46 -227 131 -287 256 -61
127 -65 164 -73 650 -9 502 -9 504 -91 586 -63 63 -124 83 -239 77 -67 -4 -97
-10 -137 -31 -70 -36 -120 -96 -144 -175 -18 -59 -20 -94 -20 -431 0 -439 7
-411 -110 -411 -117 0 -110 -28 -110 416 0 204 4 393 9 420 35 185 157 315
346 369 123 36 259 43 368 20z"/>
<path d="M2277 3656 c-123 -44 -207 -169 -207 -308 l0 -48 321 0 322 0 -7 53
c-11 81 -23 117 -58 177 -36 59 -103 112 -166 130 -52 14 -160 12 -205 -4z"/>
<path d="M3742 3641 c-95 -33 -164 -124 -191 -251 -17 -80 -15 -293 4 -363 48
-183 156 -266 333 -255 205 12 312 168 312 453 0 223 -79 373 -221 418 -67 22
-170 21 -237 -2z"/>
<path d="M3220 2446 c-245 -38 -310 -59 -379 -121 -104 -94 -59 -241 89 -290
74 -24 208 -17 270 14 125 64 190 185 190 356 0 46 -4 65 -12 64 -7 -1 -78
-11 -158 -23z"/>
</g>
</svg>
